<?xml version="1.0" encoding="utf-8"?>
<!-- Generator: Adobe Illustrator 28.0.0, SVG Export Plug-In . SVG Version: 6.00 Build 0)  -->
<svg version="1.1" id="Layer_1" xmlns="http://www.w3.org/2000/svg" xmlns:xlink="http://www.w3.org/1999/xlink" x="0px" y="0px"
	 viewBox="0 0 45 45" style="enable-background:new 0 0 45 45;" xml:space="preserve">
<style type="text/css">
	.st0{display:none;fill:#FF7370;}
	.st1{display:none;fill:#F4F4F4;}
	.st2{fill:#7EDD8C;}
	.st3{fill:#0F1422;}
</style>
<circle class="st0" cx="22.5" cy="22.5" r="20"/>
<path class="st1" d="M25.5,22.5l7.4-7.4c0.8-0.8,0.8-2.2,0-3c-0.8-0.8-2.2-0.8-3,0l-7.4,7.4l-7.4-7.4c-0.8-0.8-2.2-0.8-3,0
	c-0.8,0.8-0.8,2.2,0,3l7.4,7.4l-7.4,7.4c-0.8,0.8-0.8,2.2,0,3c0.4,0.4,1,0.6,1.5,0.6c0.5,0,1.1-0.2,1.5-0.6l7.4-7.4l7.4,7.4
	c0.4,0.4,0.9,0.6,1.5,0.6c0.5,0,1.1-0.2,1.5-0.6c0.8-0.8,0.8-2.2,0-3L25.5,22.5z"/>
<g>
	<circle class="st2" cx="22.5" cy="22.5" r="21"/>
	<path class="st3" d="M22.5,2.5c11,0,20,9,20,20s-9,20-20,20s-20-9-20-20S11.5,2.5,22.5,2.5 M22.5,0.5c-12.1,0-22,9.9-22,22
		s9.9,22,22,22s22-9.9,22-22S34.6,0.5,22.5,0.5L22.5,0.5z"/>
</g>
<path class="st3" d="M19,31.7c-0.5,0-1.1-0.2-1.5-0.6l-7.8-7.4c-0.9-0.8-0.9-2.2-0.1-3c0.8-0.9,2.2-0.9,3-0.1l6.3,6l13.4-12.6
	c0.9-0.8,2.2-0.8,3,0.1c0.8,0.9,0.8,2.2-0.1,3l-14.9,14C20,31.5,19.5,31.7,19,31.7z"/>
</svg>
